<svg xmlns="http://www.w3.org/2000/svg" viewBox="0 0 1200 700" width="1200" height="700">
  <rect width="1200" height="700" fill="#f0f2f5"/>
  <rect x="0" y="0" width="220" height="700" fill="#0c1222"/>
  <text x="30" y="50" fill="#34d399" font-family="Segoe UI,sans-serif" font-size="16" font-weight="700">Freelance CMS</text>
  <rect x="20" y="80" width="180" height="36" rx="6" fill="#10b981"/>
  <rect x="20" y="130" width="180" height="32" rx="6" fill="#141d33"/>
  <rect x="20" y="170" width="180" height="32" rx="6" fill="#141d33"/>
  <rect x="240" y="20" width="940" height="56" fill="#fff" stroke="#e2e8f0"/>
  <text x="270" y="55" fill="#1e293b" font-family="Segoe UI,sans-serif" font-size="20" font-weight="700">Dashboard</text>
  <rect x="260" y="100" width="200" height="100" rx="10" fill="#fff" stroke="#e2e8f0"/>
  <rect x="480" y="100" width="200" height="100" rx="10" fill="#fff" stroke="#e2e8f0"/>
  <rect x="700" y="100" width="200" height="100" rx="10" fill="#fff" stroke="#e2e8f0"/>
  <rect x="920" y="100" width="200" height="100" rx="10" fill="#fff" stroke="#e2e8f0"/>
  <text x="290" y="160" fill="#10b981" font-family="Segoe UI,sans-serif" font-size="32" font-weight="700">12</text>
  <rect x="260" y="230" width="420" height="220" rx="10" fill="#fff" stroke="#e2e8f0"/>
  <rect x="700" y="230" width="420" height="220" rx="10" fill="#fff" stroke="#e2e8f0"/>
  <rect x="260" y="470" width="860" height="180" rx="10" fill="#fff" stroke="#e2e8f0"/>
</svg>