<svg xmlns="http://www.w3.org/2000/svg" viewBox="0 0 1200 700" width="1200" height="700">
  <rect width="1200" height="700" fill="#f0f2f5"/>
  <rect x="0" y="0" width="220" height="700" fill="#0c1222"/>
  <text x="30" y="50" fill="#34d399" font-family="Segoe UI,sans-serif" font-size="16" font-weight="700">Freelance CMS</text>
  <rect x="20" y="80" width="180" height="36" rx="6" fill="#141d33"/>
  <rect x="20" y="130" width="180" height="32" rx="6" fill="#10b981"/>
  <rect x="20" y="170" width="180" height="32" rx="6" fill="#141d33"/>
  <rect x="240" y="20" width="940" height="56" fill="#fff" stroke="#e2e8f0"/>
  <text x="270" y="55" fill="#1e293b" font-family="Segoe UI,sans-serif" font-size="20" font-weight="700">Projects</text>
  <rect x="260" y="100" width="880" height="520" rx="10" fill="#fff" stroke="#e2e8f0"/>
  <rect x="280" y="130" width="120" height="24" rx="4" fill="#f1f5f9"/>
  <rect x="420" y="130" width="200" height="24" rx="4" fill="#f1f5f9"/>
  <rect x="640" y="130" width="100" height="24" rx="4" fill="#f1f5f9"/>
  <rect x="760" y="130" width="80" height="24" rx="4" fill="#f1f5f9"/>
  <rect x="280" y="170" width="840" height="48" rx="6" fill="#fafbfc" stroke="#e2e8f0"/>
  <rect x="300" y="186" width="56" height="32" rx="4" fill="#141d33"/>
  <rect x="420" y="188" width="180" height="12" rx="3" fill="#cbd5e1"/>
  <rect x="760" y="186" width="60" height="20" rx="10" fill="#dcfce7"/>
  <rect x="280" y="230" width="840" height="48" rx="6" fill="#fff" stroke="#e2e8f0"/>
  <rect x="300" y="246" width="56" height="32" rx="4" fill="#141d33"/>
  <rect x="420" y="248" width="180" height="12" rx="3" fill="#cbd5e1"/>
  <rect x="280" y="290" width="840" height="48" rx="6" fill="#fff" stroke="#e2e8f0"/>
  <rect x="300" y="306" width="56" height="32" rx="4" fill="#141d33"/>
  <rect x="420" y="308" width="180" height="12" rx="3" fill="#cbd5e1"/>
  <rect x="280" y="350" width="840" height="48" rx="6" fill="#fff" stroke="#e2e8f0"/>
  <rect x="300" y="366" width="56" height="32" rx="4" fill="#141d33"/>
  <rect x="420" y="368" width="180" height="12" rx="3" fill="#cbd5e1"/>
  <rect x="280" y="520" width="140" height="40" rx="8" fill="#10b981"/>
  <text x="350" y="546" fill="#0c1222" font-family="Segoe UI,sans-serif" font-size="14" font-weight="700" text-anchor="middle">+ Add</text>
</svg>