<svg xmlns="http://www.w3.org/2000/svg" viewBox="0 0 1200 700" width="1200" height="700">
  <rect width="1200" height="700" fill="#0c1222"/>
  <rect x="0" y="0" width="1200" height="48" fill="#141d33"/>
  <text x="40" y="32" fill="#34d399" font-family="Segoe UI,sans-serif" font-size="18" font-weight="700">Search projects</text>
  <rect x="60" y="80" width="1080" height="70" rx="10" fill="#1a2744" stroke="#10b981"/>
  <circle cx="100" cy="115" r="12" fill="none" stroke="#34d399" stroke-width="3"/>
  <rect x="140" y="100" width="400" height="30" rx="6" fill="#141d33"/>
  <rect x="60" y="180" width="240" height="480" rx="10" fill="#141d33" stroke="#059669"/>
  <text x="90" y="220" fill="#94a3b8" font-family="Segoe UI,sans-serif" font-size="13" font-weight="600">FILTERS</text>
  <rect x="80" y="240" width="200" height="28" rx="4" fill="#1a2744"/>
  <rect x="80" y="290" width="200" height="28" rx="4" fill="#1a2744"/>
  <rect x="80" y="340" width="200" height="36" rx="6" fill="#10b981"/>
  <rect x="330" y="180" width="810" height="110" rx="10" fill="#1a2744" stroke="#059669"/>
  <rect x="330" y="310" width="810" height="110" rx="10" fill="#1a2744" stroke="#059669"/>
  <rect x="330" y="440" width="810" height="110" rx="10" fill="#1a2744" stroke="#10b981"/>
  <text x="360" y="250" fill="#e8edf5" font-family="Segoe UI,sans-serif" font-size="14">12 projects found</text>
</svg>